<svg id="Layer_1" data-name="Layer 1"  xmlns="http://www.w3.org/2000/svg" viewBox="0 0 67.25 72.21"><defs><style>.cls-1{fill:#ce9659;}</style></defs><title>Final TICP Logos-01</title><path class="cls-1" d="M10.93,55.56l.67.67-1.5,3.54h0l3.56-1.42.66.68L11,62.31l-.44-.46,2.74-2.68h0L9.44,60.72l-.29-.31,1.64-3.81h0L8,59.28l-.44-.46Z"/><path class="cls-1" d="M16.85,60.86l.47.32-1,5-.61-.42L16,64.54l-1.84-1.26-1,.7-.62-.42ZM16.12,64l.49-2.26h0L14.66,63Z"/><path class="cls-1" d="M19.87,62.77l1.49.66a3.11,3.11,0,0,1,.75.46,2.3,2.3,0,0,1,.47.53,1.7,1.7,0,0,1,.24.58,1.94,1.94,0,0,1,.06.58,2.33,2.33,0,0,1-.07.53,2.37,2.37,0,0,1-.15.45,2.31,2.31,0,0,1-.5.73,2.1,2.1,0,0,1-.75.48,2.22,2.22,0,0,1-.94.16,3,3,0,0,1-1.1-.27L18,67Zm-1.07,4,.73.32a2.58,2.58,0,0,0,.74.21,1.86,1.86,0,0,0,.71,0,1.52,1.52,0,0,0,.61-.33,1.61,1.61,0,0,0,.46-.63,2.08,2.08,0,0,0,.14-.51,1.5,1.5,0,0,0,0-.63,1.71,1.71,0,0,0-.32-.65,2,2,0,0,0-.77-.54l-.87-.39Z"/><path class="cls-1" d="M25,64.84l2.92.72-.14.58-2.31-.58-.34,1.36,2.15.53-.14.58L25,67.49,24.62,69l2.42.6-.14.58-3-.76Z"/><path class="cls-1" d="M32,66l.63,0-.17,4.67-.64,0Z"/><path class="cls-1" d="M34.39,66.09l.83-.08,3,3.55h0l-.39-3.82.63-.06.48,4.65-.8.08-3-3.56h0l.39,3.82-.63.07Z"/><path class="cls-1" d="M42.53,64.58l.6-.21,1.51,4.42L44,69Z"/><path class="cls-1" d="M44.8,63.79l.74-.37,4,2.24h0l-1.75-3.42.56-.29,2.13,4.16-.72.37-4.06-2.24h0l1.74,3.42-.56.28Z"/><path class="cls-1" d="M49.75,61.09l1.28-1a3,3,0,0,1,.75-.44,2.46,2.46,0,0,1,.7-.17,2.08,2.08,0,0,1,.62.06,2.65,2.65,0,0,1,.54.22,2.88,2.88,0,0,1,.44.31,2.65,2.65,0,0,1,.33.35,2.51,2.51,0,0,1,.4.78,2.23,2.23,0,0,1,.08.89,2.46,2.46,0,0,1-.31.91,2.92,2.92,0,0,1-.75.84l-1.2.94Zm3,2.82.63-.49a2.54,2.54,0,0,0,.53-.56,1.67,1.67,0,0,0,.3-.65,1.61,1.61,0,0,0,0-.69,1.77,1.77,0,0,0-.35-.7,1.9,1.9,0,0,0-.38-.36,1.47,1.47,0,0,0-1.28-.3,1.82,1.82,0,0,0-.85.42l-.75.58Z"/><path class="cls-1" d="M54,57.48l.44-.46,3.35,3.26-.44.46Z"/><path class="cls-1" d="M56.53,54.57l.34-.46,4.94,1.2-.44.59-1.21-.31-1.33,1.78.65,1.06L59,59Zm3,.87-2.24-.59h0l1.19,2Z"/><path class="cls-1" d="M38.05,42.58a1.31,1.31,0,0,1-.91-.29,1.51,1.51,0,0,1-.4-1.22V29.36a2.15,2.15,0,0,0-.57-1.77c-1.15-.81-2.27-.35-3.45.14l-.4.16a7.6,7.6,0,0,1-6.62-.16c-.84-.38-2.37-.86-3.26.18-.48.48-.32,2.54-.2,4,0,0,0,.08,0,.13H32.31c1.06,0,1.48-.08,1.73-.9l.6.18c-.41,1.34-1.43,1.34-2.33,1.34h-10c0,.45.05.87.05,1.23,0,1.94-.59,3-1.76,3.14a2.27,2.27,0,0,1-1.69-.52,4.49,4.49,0,0,1-1.48-2.91A2.42,2.42,0,0,1,18,31.88a1.91,1.91,0,0,1,1.35-.6A3.78,3.78,0,0,1,21,31.7c.22.09.43.18.64.25-.18-2.29-.25-3.85.37-4.47.83-1,2.28-1.09,4-.33,2.42,1,4.08,1.06,6.13.16l.4-.16c1.23-.51,2.62-1.08,4.06-.07a2.67,2.67,0,0,1,.82,2.28V41.07a1,1,0,0,0,.2.76c.13.12.41.15.89.1l.07.62A3.71,3.71,0,0,1,38.05,42.58ZM19.42,31.9h-.08a1.29,1.29,0,0,0-.91.4A1.81,1.81,0,0,0,18,33.6a3.83,3.83,0,0,0,1.26,2.46,1.53,1.53,0,0,0,1.21.38c.82-.09,1.22-.92,1.22-2.51,0-.37,0-.82-.06-1.31a6.51,6.51,0,0,1-.94-.34A3.31,3.31,0,0,0,19.42,31.9Z"/><path class="cls-1" d="M28.67,46.41a1.61,1.61,0,0,1-1.07-.36,2,2,0,0,1-.6-1.42v-12h.62v12a1.39,1.39,0,0,0,.39.94,1.17,1.17,0,0,0,1,.19l.09.62Z"/><path class="cls-1" d="M37.42,48.68a4,4,0,0,1-1.09-.15,3.33,3.33,0,0,1-2-1.73h0a3.8,3.8,0,0,1-1.7-.4,4.62,4.62,0,0,1-2.62-3.58,10.4,10.4,0,0,1,.28-5.54,4.62,4.62,0,0,1,4.32-2.91c2.17-.09,4.37-.11,6.52-.11V29a2.39,2.39,0,0,1,.93-1.7,4,4,0,0,1,3-.63,3,3,0,0,1,2.33,2.43,4.45,4.45,0,0,1-1,3.69,5.66,5.66,0,0,1-4.13,2.12h-.55v8.84a4.69,4.69,0,0,1-1.39,3.91A4.6,4.6,0,0,1,37.42,48.68ZM35,46.74a2.74,2.74,0,0,0,1.55,1.19,3.8,3.8,0,0,0,3.38-.77,4.2,4.2,0,0,0,1.16-3.43V34.89c-2.14,0-4.33,0-6.49.1a4,4,0,0,0-3.77,2.52,9.86,9.86,0,0,0-.24,5.2,4,4,0,0,0,2.27,3.13,3.29,3.29,0,0,0,1.2.32,2.43,2.43,0,0,1,.36-2.49,1.49,1.49,0,0,1,1.93-.22,1.44,1.44,0,0,1,.55,1.83A2.73,2.73,0,0,1,35,46.74Zm.5-2.92a.85.85,0,0,0-.63.28c-.39.39-.45,1-.19,1.94l0,.1h.1A2.11,2.11,0,0,0,36.28,45,.83.83,0,0,0,36,44,1,1,0,0,0,35.46,43.82Zm8.78-16.6a3.1,3.1,0,0,0-1.87.56,1.77,1.77,0,0,0-.7,1.24v5.24h.54a5,5,0,0,0,3.65-1.88,3.85,3.85,0,0,0,.84-3.17,2.36,2.36,0,0,0-1.83-1.94A4.46,4.46,0,0,0,44.24,27.22Z"/><path class="cls-1" d="M33.27,16.21c-4.42,0-4.42,6.87,0,6.87S37.69,16.21,33.27,16.21Z"/><circle class="cls-1" cx="29.65" cy="53.73" r="0.9"/><circle class="cls-1" cx="36.89" cy="53.73" r="0.9"/><circle class="cls-1" cx="33.32" cy="57.25" r="0.9"/><path class="cls-1" d="M2.15,44.11l.43,1.44L2,45.72l-1-3.5.57-.16L2,43.5l3.91-1.16.18.6Z"/><path class="cls-1" d="M.48,39.78l-.06-.63L2.35,39,2.1,36.54l-1.93.2L.1,36.11l4.65-.48.07.63-2.13.22.25,2.41,2.13-.22.06.63Z"/><path class="cls-1" d="M.11,33.07l.26-3,.59.05-.2,2.38,1.39.11.18-2.21.6.05-.19,2.21,1.49.13.21-2.5.59,0-.26,3.13Z"/><path class="cls-1" d="M1.75,24.15l.2-.6L6.38,25l-.2.6Z"/><path class="cls-1" d="M3,20.8l.39-.74L8,19.57H8l-3.4-1.79.29-.56L9,19.39l-.37.71L4,20.61H4l3.4,1.79-.3.56Z"/><path class="cls-1" d="M6.57,14.68l1-1.25a3.22,3.22,0,0,1,.64-.6,2.36,2.36,0,0,1,.65-.3,1.67,1.67,0,0,1,.62-.07,2.41,2.41,0,0,1,1.06.31A3.1,3.1,0,0,1,11,13a2.45,2.45,0,0,1,.56.68,2.27,2.27,0,0,1,.26.85,2.41,2.41,0,0,1-.11.95,2.81,2.81,0,0,1-.56,1l-1,1.17Zm3.54,2.13.51-.62a2.59,2.59,0,0,0,.4-.65,1.76,1.76,0,0,0,.15-.7,1.51,1.51,0,0,0-.14-.68,1.68,1.68,0,0,0-.48-.6,2.33,2.33,0,0,0-.45-.28,1.42,1.42,0,0,0-.62-.16,1.58,1.58,0,0,0-.71.14,1.88,1.88,0,0,0-.73.58l-.61.74Z"/><path class="cls-1" d="M11.1,9.76l.47-.42,3.1,3.5-.47.42Z"/><path class="cls-1" d="M15,6.71l.48-.31,4.23,2.82-.62.4-1-.71-1.87,1.22.25,1.22-.62.4ZM17.6,8.57,15.7,7.25h0l.43,2.28Z"/><path class="cls-1" d="M26,3a1.34,1.34,0,0,0-.59-.24,1.53,1.53,0,0,0-.64,0,1.75,1.75,0,0,0-.65.34,1.68,1.68,0,0,0-.41.54,1.71,1.71,0,0,0-.17.68,2.18,2.18,0,0,0,.08.75,2.11,2.11,0,0,0,.31.64,1.75,1.75,0,0,0,.48.46,1.64,1.64,0,0,0,.64.23,1.9,1.9,0,0,0,.74-.06A1.47,1.47,0,0,0,26.42,6a1.56,1.56,0,0,0,.37-.59l.62.24a1.73,1.73,0,0,1-.12.25A2.27,2.27,0,0,1,27,6.3a2.85,2.85,0,0,1-.44.37,2.29,2.29,0,0,1-.65.29,2.26,2.26,0,0,1-1,.08A2.64,2.64,0,0,1,24,6.71,2.46,2.46,0,0,1,23,5.3a2.72,2.72,0,0,1-.1-1,2.41,2.41,0,0,1,.26-.9,2.13,2.13,0,0,1,.6-.71,2.54,2.54,0,0,1,.9-.45,2.35,2.35,0,0,1,.92-.07,1.7,1.7,0,0,1,.85.32Z"/><path class="cls-1" d="M28.89,1.46l1.63-.15a2,2,0,0,1,.75.05,1.36,1.36,0,0,1,.49.27A1.09,1.09,0,0,1,32,2a1.89,1.89,0,0,1,.11.44,1.29,1.29,0,0,1,0,.44,1.36,1.36,0,0,1-.2.4,1.23,1.23,0,0,1-.33.31,1.44,1.44,0,0,1-.46.19l1.51,2-.78.07L30.46,3.94l-.7.06L30,6.06l-.63.05Zm.82,2,.83-.07.36-.07a.8.8,0,0,0,.31-.14.61.61,0,0,0,.21-.24,1,1,0,0,0,0-.4.77.77,0,0,0-.13-.37A.54.54,0,0,0,31.1,2a1.13,1.13,0,0,0-.34-.08H30.4L29.57,2Z"/><path class="cls-1" d="M36.18,1.3l.57.05,1.57,4.84-.73-.07-.37-1.19L35,4.73l-.57,1.1-.73-.06ZM37,4.35l-.67-2.21h0L35.28,4.19Z"/><path class="cls-1" d="M41.12,2.06,44,2.85l-.16.57L41.57,2.8l-.39,1.41,2.07.58-.16.57L41,4.79l-.54,1.94-.61-.17Z"/><path class="cls-1" d="M47,4.74,45.67,4.1l.25-.54,3.3,1.56L49,5.65,47.6,5,45.86,8.7l-.57-.27Z"/><path class="cls-1" d="M54.09,8.36l1.25,1.07a2,2,0,0,1,.48.57,1.27,1.27,0,0,1,.14.54,1.07,1.07,0,0,1-.1.47,1.84,1.84,0,0,1-.24.39,1.42,1.42,0,0,1-.35.29,1,1,0,0,1-.45.17,1.35,1.35,0,0,1-.55-.06,2.16,2.16,0,0,1-.64-.39l-.77-.66-1.34,1.56L51,11.9Zm-.86,2,.63.54a3.15,3.15,0,0,0,.29.22,1.44,1.44,0,0,0,.32.13.59.59,0,0,0,.32,0,.8.8,0,0,0,.32-.23.78.78,0,0,0,.18-.35.5.5,0,0,0,0-.32,1,1,0,0,0-.17-.3,3.19,3.19,0,0,0-.26-.26l-.63-.54Z"/><path class="cls-1" d="M58.22,12.24l1.05,1.27a1.9,1.9,0,0,1,.37.65,1.37,1.37,0,0,1,.06.55,1.12,1.12,0,0,1-.18.45,1.7,1.7,0,0,1-.31.34,1,1,0,0,1-.38.21,1.31,1.31,0,0,1-.44.07,1.46,1.46,0,0,1-.45-.1,1.25,1.25,0,0,1-.41-.28l-.8,2.38-.51-.62.84-2.22-.45-.55L55,15.7l-.4-.49ZM57,14l.52.64a2.23,2.23,0,0,0,.26.27,1,1,0,0,0,.29.18.58.58,0,0,0,.32,0,.78.78,0,0,0,.35-.18.7.7,0,0,0,.25-.31.6.6,0,0,0,0-.32,1,1,0,0,0-.12-.32,1.61,1.61,0,0,0-.21-.3l-.53-.64Z"/><path class="cls-1" d="M58.58,21.1a2.45,2.45,0,0,1-.3-1,2.21,2.21,0,0,1,.1-.93,2.32,2.32,0,0,1,.45-.81,2.74,2.74,0,0,1,1.71-.91,2.35,2.35,0,0,1,.92.08,2.23,2.23,0,0,1,.82.43,2.7,2.7,0,0,1,.63.78,2.55,2.55,0,0,1,.3,1,2.18,2.18,0,0,1-.1.92,2.32,2.32,0,0,1-.45.81,2.63,2.63,0,0,1-.77.62,2.56,2.56,0,0,1-.94.29,2.42,2.42,0,0,1-.93-.07,2.3,2.3,0,0,1-.81-.44A2.22,2.22,0,0,1,58.58,21.1Zm.52-.28a1.8,1.8,0,0,0,.47.57,1.55,1.55,0,0,0,.62.3,1.77,1.77,0,0,0,.69,0,2.17,2.17,0,0,0,1.27-.68,1.67,1.67,0,0,0,.45-1.27,2,2,0,0,0-.21-.71,2,2,0,0,0-.47-.57,1.87,1.87,0,0,0-.62-.3,1.77,1.77,0,0,0-.69,0,2.16,2.16,0,0,0-.69.23,2,2,0,0,0-.58.45,1.67,1.67,0,0,0-.45,1.27A1.71,1.71,0,0,0,59.1,20.82Z"/><path class="cls-1" d="M65.32,25l.19.6-3.18,1a1.67,1.67,0,0,1-.74.08,1.21,1.21,0,0,1-.52-.2,1.29,1.29,0,0,1-.35-.35,1.79,1.79,0,0,1-.19-.4,1.36,1.36,0,0,1,0-.87,1.2,1.2,0,0,1,.61-.65l.32.55a.72.72,0,0,0-.33.34.58.58,0,0,0,0,.45.75.75,0,0,0,.2.34.67.67,0,0,0,.3.13A1,1,0,0,0,62,26a2.34,2.34,0,0,0,.38-.09Z"/><path class="cls-1" d="M66.17,28.37l.42,3-.59.08-.33-2.36-1.38.2.31,2.19-.59.09-.31-2.2-1.48.21.35,2.48-.59.08L61.54,29Z"/><path class="cls-1" d="M65.59,37.4a1.3,1.3,0,0,0,.42-.48,1.54,1.54,0,0,0,.16-.62,1.73,1.73,0,0,0-.11-.73,1.67,1.67,0,0,0-.39-.56,1.77,1.77,0,0,0-.58-.38,2.57,2.57,0,0,0-.74-.16,2.1,2.1,0,0,0-.71.09,1.77,1.77,0,0,0-.59.32,1.7,1.7,0,0,0-.42.53,1.83,1.83,0,0,0-.18.73A1.43,1.43,0,0,0,63,37.38l-.43.52-.2-.19a1.86,1.86,0,0,1-.25-.36,2.25,2.25,0,0,1-.22-.54,2.22,2.22,0,0,1-.07-.71,2.27,2.27,0,0,1,.26-1,2.36,2.36,0,0,1,.58-.74,2.6,2.6,0,0,1,.8-.44,2.41,2.41,0,0,1,.88-.13,2.87,2.87,0,0,1,1,.22,2.22,2.22,0,0,1,1.25,1.32,2.73,2.73,0,0,1,.15,1,2.58,2.58,0,0,1-.22.9A1.75,1.75,0,0,1,66,38Z"/><path class="cls-1" d="M65.36,41.46,65.69,40l.58.13-.81,3.55-.58-.13.34-1.47-4-.9.14-.62Z"/></svg>